# xmcd
#
# Track frame offsets:
#	150
#	21050
#	35952
#	48325
#	63980
#	75067
#	84435
#	99927
#	117017
#	134827
#	148342
#	160967
#
# Disc length: 2350 seconds
#
# Revision: 1
# Processed by: cddbd v1.5.2PL0 Copyright (c) Steve Scherf et al.
# Submitted via: audiograbber 1.83.01
#
DISCID=9a092c0c
DTITLE=Sonny Terry and Brownie McGhee - California Blues - Disc 2
DYEAR=1981
DGENRE=Blues
TTITLE0=Terry - McGhee - John Henry
TTITLE1=Terry - McGhee - I'm A Stranger
TTITLE2=Terry - McGhee - Cornbread And Peas
TTITLE3=Terry - McGhee - Louise
TTITLE4=Terry - McGhee - I Done Done
TTITLE5=McGhee - Meet You In The Morning
TTITLE6=Terry - McGhee - Poor Boy From Home
TTITLE7=Terry - McGhee - Hudy Leadbelly
TTITLE8=McGhee - Something's Wrong At Home
TTITLE9=Terry - McGhee - Take This Hammer
TTITLE10=Terry - McGhee - Baby's Gone
TTITLE11=Terry - McGhee - Lose Your Money
EXTD=
EXTT0=
EXTT1=
EXTT2=
EXTT3=
EXTT4=
EXTT5=
EXTT6=
EXTT7=
EXTT8=
EXTT9=
EXTT10=
EXTT11=
PLAYORDER=
